<svg id="Layer_3" height="512" viewBox="0 0 64 64" width="512" xmlns="http://www.w3.org/2000/svg" data-name="Layer 3"><rect fill="#686868" height="28" rx="4" width="40" x="10" y="3"/><path d="m14 3a4 4 0 0 0 -4 4v20a4 4 0 0 0 4 4h10v-28z" fill="#4e4e4e"/><g fill="#868686"><path d="m27 41h6v10h-6z"/><path d="m50 8h4v18h-4z"/><path d="m6 10h4v14h-4z"/></g><path d="m30 7h16v16h-16z" fill="#ccc"/><path d="m30 7v13h11a2 2 0 0 0 2-2v-11z" fill="#f2f2f2"/><path d="m2 8h4v18h-4z" fill="#686868"/><path d="m62 32-8-4v-22l8-4z" fill="#686868"/><path d="m18 31v2a2 2 0 0 0 2 2h20a2 2 0 0 0 2-2v-2z" fill="#868686"/><path d="m20 39a2 2 0 0 0 2 2h16a2 2 0 0 0 2-2v-4h-20z" fill="#9e9e9e"/><path d="m34 11v8l8-4z" fill="#aa2b24"/><path d="m38 13-4-2v5h2a2 2 0 0 0 2-2z" fill="#d24034"/><path d="m20 35v3h15a3 3 0 0 0 3-3z" fill="#b1b1b1"/><path d="m38 31h-20v2h18a2 2 0 0 0 2-2z" fill="#9e9e9e"/><circle cx="44" cy="57" fill="#686868" r="5"/><circle cx="44" cy="57" fill="#868686" r="2"/><path d="m35 51h-10a2 2 0 0 0 -2 2v2h14v-2a2 2 0 0 0 -2-2z" fill="#868686"/><path d="m14 7h6v16h-6z" fill="#ccc"/><path d="m14 7v13h2a2 2 0 0 0 2-2v-11z" fill="#f2f2f2"/><path d="m35 51h-10a2 2 0 0 0 -2 2h10a2 2 0 0 0 2-2z" fill="#9e9e9e"/><circle cx="16" cy="57" fill="#686868" r="5"/><path d="m39.422 55h-18.844a4.95 4.95 0 0 1 0 4h18.844a4.95 4.95 0 0 1 0-4z" fill="#9e9e9e"/><circle cx="16" cy="57" fill="#868686" r="2"/><path d="m62.526 1.149a1 1 0 0 0 -.973-.044l-8 4a1 1 0 0 0 -.553.895v1h-2a5.006 5.006 0 0 0 -5-5h-32a5.006 5.006 0 0 0 -5 5v2h-2v-1a1 1 0 0 0 -1-1h-4a1 1 0 0 0 -1 1v18a1 1 0 0 0 1 1h4a1 1 0 0 0 1-1v-1h2v2a5.006 5.006 0 0 0 5 5h3v1a3 3 0 0 0 2 2.816v3.184a3 3 0 0 0 3 3h4v8h-1a3 3 0 0 0 -3 3v1h-.812a6 6 0 1 0 0 6h17.624a6 6 0 1 0 0-6h-.812v-1a3 3 0 0 0 -3-3h-1v-8h4a3 3 0 0 0 3-3v-3.184a3 3 0 0 0 2-2.816v-1h3a5.006 5.006 0 0 0 5-5h2v1a1 1 0 0 0 .553.895l8 4a1 1 0 0 0 1.447-.895v-30a1 1 0 0 0 -.474-.851zm-57.526 23.851h-2v-16h2zm2-2v-12h2v12zm9 38a4 4 0 1 1 4-4 4 4 0 0 1 -4 4zm28-8a4 4 0 1 1 -4 4 4 4 0 0 1 4-4zm-33-26v-20a3 3 0 0 1 3-3h9v26h-9a3 3 0 0 1 -3-3zm27.09 31h-16.18a5.6 5.6 0 0 0 0-2h16.18a5.6 5.6 0 0 0 0 2zm-2.09-5v1h-12v-1a1 1 0 0 1 1-1h10a1 1 0 0 1 1 1zm-4-3h-4v-8h4zm6-10h-16a1 1 0 0 1 -1-1v-3h18v3a1 1 0 0 1 -1 1zm3-7a1 1 0 0 1 -1 1h-20a1 1 0 0 1 -1-1v-1h22zm8-6a3 3 0 0 1 -3 3h-21v-26h21a3 3 0 0 1 3 3zm2-2v-16h2v16zm10 5.382-6-3v-20.764l6-3z"/><path d="m46 6h-16a1 1 0 0 0 -1 1v16a1 1 0 0 0 1 1h16a1 1 0 0 0 1-1v-16a1 1 0 0 0 -1-1zm-1 16h-14v-14h14z"/><path d="m29 26h14v2h-14z"/><path d="m45 26h2v2h-2z"/><path d="m33.474 19.851a1 1 0 0 0 .973.044l8-4a1 1 0 0 0 0-1.79l-8-4a1 1 0 0 0 -1.447.895v8a1 1 0 0 0 .474.851zm1.526-7.233 4.764 2.382-4.764 2.382z"/><path d="m16 54a3 3 0 1 0 3 3 3 3 0 0 0 -3-3zm0 4a1 1 0 1 1 1-1 1 1 0 0 1 -1 1z"/><path d="m44 60a3 3 0 1 0 -3-3 3 3 0 0 0 3 3zm0-4a1 1 0 1 1 -1 1 1 1 0 0 1 1-1z"/><path d="m20 6h-6a1 1 0 0 0 -1 1v16a1 1 0 0 0 1 1h6a1 1 0 0 0 1-1v-16a1 1 0 0 0 -1-1zm-1 16h-4v-14h4z"/><path d="m13 26h8v2h-8z"/></svg>