<?xml version="1.0" encoding="UTF-8" standalone="no"?>
<svg
   xmlns:dc="http://purl.org/dc/elements/1.1/"
   xmlns:cc="http://creativecommons.org/ns#"
   xmlns:rdf="http://www.w3.org/1999/02/22-rdf-syntax-ns#"
   xmlns:svg="http://www.w3.org/2000/svg"
   xmlns="http://www.w3.org/2000/svg"
   xmlns:sodipodi="http://sodipodi.sourceforge.net/DTD/sodipodi-0.dtd"
   xmlns:inkscape="http://www.inkscape.org/namespaces/inkscape"
   width="123.74576mm"
   height="17.562954mm"
   viewBox="0 0 123.74576 17.562954"
   version="1.1"
   id="svg8"
   inkscape:version="1.0 (4035a4fb49, 2020-05-01)"
   sodipodi:docname="logo-bw-lt.svg">
  <defs
     id="defs2" />
  <sodipodi:namedview
     fit-margin-bottom="0"
     fit-margin-right="0"
     fit-margin-left="0"
     fit-margin-top="0"
     id="base"
     pagecolor="#ffffff"
     bordercolor="#666666"
     borderopacity="1.0"
     inkscape:pageopacity="0.0"
     inkscape:pageshadow="2"
     inkscape:zoom="1.3249068"
     inkscape:cx="142.72098"
     inkscape:cy="242.57494"
     inkscape:document-units="mm"
     inkscape:current-layer="text12"
     inkscape:document-rotation="0"
     showgrid="false"
     inkscape:window-width="2145"
     inkscape:window-height="1314"
     inkscape:window-x="3005"
     inkscape:window-y="806"
     inkscape:window-maximized="0" />
  <metadata
     id="metadata5">
    <rdf:RDF>
      <cc:Work
         rdf:about="">
        <dc:format>image/svg+xml</dc:format>
        <dc:type
           rdf:resource="http://purl.org/dc/dcmitype/StillImage" />
        <dc:title />
      </cc:Work>
    </rdf:RDF>
  </metadata>
  <g
     transform="translate(-90.444766,-66.826031)"
     inkscape:label="Layer 1"
     inkscape:groupmode="layer"
     id="layer1">
    <g
       transform="translate(22.366351,-24.962445)"
       id="g15">
      <g
         style="font-size:14.1111px;line-height:0;font-family:Orbitron;-inkscape-font-specification:Orbitron;stroke-width:0.264583"
         id="text12"
         aria-label="Arlan Stehney">
        <path
           id="path12"
           style="font-size:14.1111px;line-height:0.85;letter-spacing:-0.907521px;stroke-width:0.264583"
           d="m 68.143111,103.01795 0.01419,-8.12798 q 0.0015,-0.846665 0.595178,-1.438296 0.5937,-0.591631 1.440364,-0.590153 l 6.095986,0.01064 q 0.832554,0.0015 1.424185,0.595152 0.605742,0.593725 0.604264,1.440389 l -0.01419,8.127978 -2.046106,-0.004 0.0058,-3.344323 -6.081875,-0.01062 -0.0058,3.344328 z m 2.041379,-5.372773 6.081875,0.01062 0.004,-2.271884 q 7.39e-4,-0.423332 -0.02743,-0.451604 -0.02817,-0.02827 -0.451505,-0.02901 l -5.136433,-0.009 q -0.423332,-7.39e-4 -0.451603,0.02743 -0.01416,0.0282 -0.0149,0.45153 z" />
        <path
           id="path14"
           style="font-size:14.1111px;line-height:0.85;letter-spacing:-0.907521px;stroke-width:0.264583"
           d="m 78.946921,103.0178 0.01081,-6.19476 q 0.0014,-0.804332 0.595104,-1.395962 0.593699,-0.591631 1.412142,-0.590203 l 4.529656,0.0079 -0.0035,2.003773 -4.04988,-0.0071 q -0.423332,-7.39e-4 -0.451603,0.02743 -0.02827,0.02817 -0.02901,0.451505 l -0.0099,5.700875 z" />
        <path
           id="path16"
           style="font-size:14.1111px;line-height:0.85;letter-spacing:-0.907521px;stroke-width:0.264583"
           d="m 87.525585,103.02128 q -0.804331,-0.001 -1.395962,-0.59511 -0.591631,-0.5937 -0.590227,-1.39803 l 0.01552,-8.889978 2.017884,0.0035 -0.01465,8.396096 q -7.39e-4,0.42333 0.01332,0.45157 0.02817,0.0283 0.465616,0.029 l 1.213553,0.002 -0.0035,2.00377 z" />
        <path
           id="path18"
           style="font-size:14.1111px;line-height:0.85;letter-spacing:-0.907521px;stroke-width:0.264583"
           d="m 91.413633,103.02128 q -0.818442,-0.001 -1.410073,-0.59513 -0.57752,-0.59368 -0.576116,-1.39801 l 0.0054,-3.104436 6.293541,0.01098 0.0011,-0.606776 q 7.39e-4,-0.423332 -0.02743,-0.451604 -0.01406,-0.02825 -0.451505,-0.02901 l -5.813765,-0.01015 0.0035,-2.003773 6.307652,0.01101 q 0.832554,0.0015 1.410073,0.595128 0.57752,0.593675 0.576116,1.398007 l -0.01081,6.194768 z m 0.497385,-2.00292 3.809992,0.007 0.0023,-1.312326 -4.289768,-0.0075 -0.0015,0.832553 q -7.39e-4,0.42333 0.02743,0.4516 0.02817,0.0283 0.451505,0.029 z" />
        <path
           id="path20"
           style="font-size:14.1111px;line-height:0.85;letter-spacing:-0.907521px;stroke-width:0.264583"
           d="m 98.190932,103.01785 0.01429,-8.184423 6.307653,0.01101 q 0.83255,0.0015 1.41007,0.595128 0.57752,0.593675 0.57612,1.398007 l -0.0108,6.194759 -2.00378,-0.003 0.01,-5.700879 q 7.4e-4,-0.423332 -0.0274,-0.451603 -0.0141,-0.02825 -0.43739,-0.02899 l -3.34433,-0.0058 q -0.42333,-7.39e-4 -0.4516,0.02743 -0.0283,0.02817 -0.029,0.451505 l -0.01,5.700876 z" />
        <path
           id="path22"
           style="font-size:14.1111px;line-height:0.85;letter-spacing:-0.907521px;stroke-width:0.264583"
           d="m 112.64268,103.02137 q -0.83255,-0.001 -1.42419,-0.59515 -0.59163,-0.5937 -0.59015,-1.44036 l 0.002,-0.86078 2.01789,0.004 -6.7e-4,0.381 q -7.4e-4,0.42333 0.0274,0.45161 0.0282,0.0283 0.4515,0.029 l 5.12232,0.009 q 0.43745,7.6e-4 0.45161,-0.0274 0.0283,-0.0282 0.029,-0.4515 l 0.002,-1.072444 q 7.4e-4,-0.423333 -0.0274,-0.451604 -0.0141,-0.02825 -0.45151,-0.02901 l -5.6021,-0.0098 q -0.83255,-0.0015 -1.42418,-0.595153 -0.59163,-0.5937 -0.59018,-1.426253 l 0.004,-2.046107 q 0.001,-0.846664 0.59518,-1.438295 0.5937,-0.591631 1.42625,-0.590178 l 6.1101,0.01066 q 0.81844,0.0014 1.42418,0.595153 0.60575,0.593724 0.60427,1.440389 l -0.001,0.860776 -2.06022,-0.0036 6.6e-4,-0.380999 q 7.4e-4,-0.423332 -0.0274,-0.451604 -0.0141,-0.02825 -0.45151,-0.02901 l -5.12232,-0.0089 q -0.42333,-7.39e-4 -0.4516,0.02743 -0.0283,0.02817 -0.029,0.451505 l -0.002,1.072442 q -7.4e-4,0.423332 0.0274,0.451604 0.0282,0.02827 0.45151,0.02901 l 5.63032,0.0098 q 0.81844,0.0014 1.42418,0.595153 0.60574,0.593724 0.60429,1.426278 l -0.004,2.046106 q -0.001,0.84666 -0.60929,1.43827 -0.60781,0.59161 -1.42625,0.59018 z" />
        <path
           id="path24"
           style="font-size:14.1111px;line-height:0.85;letter-spacing:-0.907521px;stroke-width:0.264583"
           d="m 123.36513,103.02133 q -0.81844,-0.001 -1.41007,-0.59513 -0.59164,-0.5937 -0.59023,-1.39803 l 0.0151,-8.664206 2.00377,0.0035 -0.004,2.469439 3.11855,0.0054 -0.004,2.003773 -3.11854,-0.0054 -0.006,3.697107 q -7.4e-4,0.42333 0.0274,0.4516 0.0282,0.0283 0.4515,0.029 l 2.63877,0.005 -0.003,2.00377 z" />
        <path
           id="path26"
           style="font-size:14.1111px;line-height:0.85;letter-spacing:-0.907521px;stroke-width:0.264583"
           d="m 128.69913,103.02125 q -0.80433,-0.001 -1.39597,-0.5951 -0.59163,-0.5937 -0.59022,-1.39803 l 0.007,-4.205105 q 0.001,-0.804331 0.5951,-1.395962 0.5937,-0.591631 1.39803,-0.590227 l 4.31799,0.0075 q 0.83255,0.0015 1.41007,0.595128 0.57752,0.593675 0.57612,1.398007 l -0.005,3.104437 -6.29354,-0.01098 -0.001,0.60678 q -7.4e-4,0.42333 0.0274,0.4516 0.0282,0.0283 0.4515,0.029 l 5.81377,0.0102 -0.004,2.00377 z m 0.0226,-4.868296 4.28977,0.0075 0.001,-0.832554 q 7.3e-4,-0.423332 -0.0274,-0.451603 -0.0141,-0.02825 -0.4515,-0.02901 l -3.33022,-0.0058 q -0.42333,-7.39e-4 -0.4516,0.02743 -0.0283,0.02817 -0.029,0.451505 z" />
        <path
           id="path28"
           style="font-size:14.1111px;line-height:0.85;letter-spacing:-0.907521px;stroke-width:0.264583"
           d="m 135.49054,103.01785 0.019,-10.865528 2.00377,0.0035 -0.005,2.681105 4.30388,0.0075 q 0.81845,0.0014 1.39597,0.595104 0.59163,0.593699 0.59022,1.398031 l -0.0108,6.194759 -2.00377,-0.003 0.01,-5.700879 q 7.4e-4,-0.423332 -0.0274,-0.451603 -0.0141,-0.02825 -0.43739,-0.02899 l -3.34433,-0.0058 q -0.42333,-7.39e-4 -0.4516,0.02743 -0.0283,0.02817 -0.029,0.451505 l -0.01,5.700876 z" />
        <path
           id="path30"
           style="font-size:14.1111px;line-height:0.85;letter-spacing:-0.907521px;stroke-width:0.264583"
           d="m 144.00879,103.01785 0.0143,-8.184423 6.30765,0.01101 q 0.83256,0.0015 1.41008,0.595128 0.57752,0.593675 0.57611,1.398007 l -0.0108,6.194759 -2.00377,-0.003 0.01,-5.700879 q 7.4e-4,-0.423332 -0.0274,-0.451603 -0.0141,-0.02825 -0.43739,-0.02899 l -3.34433,-0.0058 q -0.42333,-7.39e-4 -0.4516,0.02743 -0.0283,0.02817 -0.029,0.451505 l -0.01,5.700876 z" />
        <path
           id="path32"
           style="font-size:14.1111px;line-height:0.85;letter-spacing:-0.907521px;stroke-width:0.264583"
           d="m 154.50193,103.02125 q -0.80433,-0.001 -1.39596,-0.5951 -0.59163,-0.5937 -0.59023,-1.39803 l 0.007,-4.205105 q 0.001,-0.804331 0.5951,-1.395962 0.5937,-0.591631 1.39803,-0.590227 l 4.31799,0.0075 q 0.83256,0.0015 1.41008,0.595128 0.57752,0.593675 0.57611,1.398007 l -0.005,3.104437 -6.29355,-0.01098 -0.001,0.60678 q -7.4e-4,0.42333 0.0274,0.4516 0.0282,0.0283 0.4515,0.029 l 5.81377,0.0102 -0.004,2.00377 z m 0.0226,-4.868296 4.28977,0.0075 0.001,-0.832554 q 7.4e-4,-0.423332 -0.0274,-0.451603 -0.0141,-0.02825 -0.4515,-0.02901 l -3.33022,-0.0058 q -0.42333,-7.39e-4 -0.4516,0.02743 -0.0283,0.02817 -0.029,0.451505 z" />
        <path
           id="path34"
           style="font-size:14.1111px;line-height:0.85;letter-spacing:-0.907521px;stroke-width:0.264583"
           d="m 162.44525,105.99731 0.004,-2.01788 4.50144,0.008 q 0.43744,7.7e-4 0.4516,-0.0274 0.0282,-0.0141 0.029,-0.4374 l 8.6e-4,-0.49388 -4.30388,-0.008 q -0.81844,-0.001 -1.41007,-0.59512 -0.59163,-0.5937 -0.59023,-1.39803 l 0.0108,-6.166546 2.00378,0.0035 -0.01,5.672649 q -7.3e-4,0.42334 0.0274,0.45161 0.0282,0.0283 0.4515,0.029 l 3.34433,0.006 q 0.43744,7.6e-4 0.4516,-0.0274 0.0283,-0.0282 0.029,-0.4515 l 0.01,-5.672657 2.00378,0.0035 -0.016,9.14398 q -0.001,0.83255 -0.59513,1.41007 -0.57956,0.57755 -1.39801,0.57612 z" />
      </g>
      <g
         style="font-size:7.76111px;line-height:1.25;font-family:'Exo 2';-inkscape-font-specification:'Exo 2, ';letter-spacing:0.547687px;stroke-width:0.264583"
         id="text16"
         aria-label="Productions">
        <path
           id="path37"
           style="font-size:7.76111px;stroke-width:0.264583"
           d="m 71.097007,103.43836 q 0.589845,0 0.923572,0.14746 0.333728,0.1397 0.442384,0.48895 0.108655,0.34925 0.02328,0.9779 -0.08537,0.62865 -0.287161,0.9779 -0.201789,0.34149 -0.566561,0.47343 -0.357011,0.13194 -0.939095,0.13194 -0.302683,0 -0.582083,-0.008 -0.271639,-0.008 -0.496711,-0.0155 -0.217311,-0.0155 -0.372533,-0.0233 -0.155223,-0.0155 -0.217311,-0.0233 l 0.03104,-0.20955 q 0.388056,0 0.807156,0 0.426861,0 0.822677,0 0.481189,-0.008 0.776111,-0.11642 0.302684,-0.11642 0.465667,-0.40358 0.162983,-0.28716 0.232833,-0.81492 0.07761,-0.51999 -0.0078,-0.79939 -0.07761,-0.28716 -0.341489,-0.39582 -0.256116,-0.10865 -0.714022,-0.10865 -0.605366,0 -1.04775,0.008 -0.442383,0.008 -0.597605,0.0233 l -0.08537,-0.24835 q 0.2794,-0.0311 0.519995,-0.0388 0.240594,-0.0155 0.519994,-0.0155 0.287161,-0.008 0.690739,-0.008 z m -1.412522,0.0621 -0.752828,5.35516 h -0.318205 l 0.752827,-5.35516 z" />
        <path
           id="path39"
           style="font-size:7.76111px;stroke-width:0.264583"
           d="m 74.361326,105.11476 -0.100895,0.97014 0.01552,0.11641 -0.372533,2.6543 h -0.302683 l 0.527755,-3.74085 z m 1.924755,-0.0931 -0.08537,0.29493 h -0.147461 q -0.388056,0 -0.814917,0.25611 -0.4191,0.25612 -1.001183,0.72955 v -0.24836 q 0.519994,-0.48895 0.985661,-0.76059 0.473428,-0.27164 0.900289,-0.27164 z" />
        <path
           id="path41"
           style="font-size:7.76111px;stroke-width:0.264583"
           d="m 79.007971,105.02162 q 0.613128,0 0.954617,0.19403 0.341488,0.19403 0.450144,0.62865 0.108656,0.43462 0.0078,1.16417 -0.100894,0.71402 -0.318205,1.14088 -0.217312,0.42686 -0.605367,0.61313 -0.388056,0.18627 -0.993422,0.18627 -0.613128,0 -0.962378,-0.19403 -0.341489,-0.19403 -0.450145,-0.62865 -0.108655,-0.43462 -0.0078,-1.15641 0.100895,-0.71402 0.318206,-1.14088 0.217311,-0.42686 0.605367,-0.61313 0.388055,-0.19403 1.001183,-0.19403 z m 0,0.2794 q -0.504472,0 -0.822678,0.15523 -0.318205,0.15522 -0.504472,0.52775 -0.186267,0.37254 -0.271639,1.02447 -0.09313,0.62865 -0.02328,0.99342 0.07761,0.36477 0.34925,0.52 0.271639,0.15522 0.76835,0.15522 0.496711,0 0.814916,-0.15522 0.325967,-0.16299 0.504473,-0.53552 0.186266,-0.37253 0.2794,-1.01671 0.08537,-0.63641 0.0078,-1.00118 -0.06985,-0.36477 -0.341489,-0.51223 -0.263878,-0.15523 -0.760589,-0.15523 z" />
        <path
           id="path43"
           style="font-size:7.76111px;stroke-width:0.264583"
           d="m 83.929771,105.02162 q 0.341489,0 0.721783,0.0388 0.380295,0.031 0.745067,0.0776 l -0.100894,0.20955 q -0.426861,-0.0233 -0.721784,-0.0388 -0.294922,-0.0155 -0.566561,-0.0155 -0.450144,0 -0.745066,0.0699 -0.294923,0.0621 -0.473428,0.24836 -0.178506,0.1785 -0.2794,0.51999 -0.100895,0.33373 -0.186267,0.86925 -0.07761,0.57432 -0.06985,0.94685 0.01552,0.36478 0.162983,0.54328 0.155223,0.17851 0.48895,0.17851 0.442384,0 0.931334,-0.2794 0.496711,-0.2794 1.001183,-0.82268 l 0.03104,0.24059 q -0.20955,0.24836 -0.457906,0.45791 -0.240594,0.20955 -0.496711,0.36477 -0.256117,0.14746 -0.527756,0.23283 -0.271639,0.0854 -0.543277,0.0854 -0.426862,0 -0.636412,-0.21731 -0.20955,-0.21732 -0.248355,-0.6597 -0.03881,-0.44238 0.05433,-1.10984 0.09313,-0.5976 0.225072,-0.9779 0.131939,-0.38029 0.34925,-0.58984 0.217311,-0.20955 0.543278,-0.28716 0.325966,-0.0854 0.799394,-0.0854 z m 1.738489,-1.59878 -0.76835,5.43277 h -0.240594 l 0.100894,-0.98566 -0.02328,-0.0388 0.357011,-2.56893 0.05433,-0.13194 q 0.0078,-0.20179 0.02328,-0.36477 0.01552,-0.17075 0.04657,-0.3803 l 0.1397,-0.96237 z" />
        <path
           id="path45"
           style="font-size:7.76111px;stroke-width:0.264583"
           d="m 87.631986,105.11476 -0.395817,2.75519 q -0.05433,0.4191 0.100895,0.61313 0.162983,0.18627 0.551039,0.18627 0.411339,0 0.822678,-0.26388 0.411338,-0.27164 0.962377,-0.79163 l 0.02328,0.25611 q -0.527756,0.53552 -1.001184,0.80716 -0.465666,0.27164 -0.884766,0.27164 -0.504473,0 -0.737306,-0.26388 -0.225072,-0.27164 -0.147461,-0.76835 l 0.395817,-2.80176 z m 2.677584,0 -0.527756,3.74085 h -0.232833 l 0.108655,-1.02446 -0.01552,-0.11642 0.357011,-2.59997 z" />
        <path
           id="path47"
           style="font-size:7.76111px;stroke-width:0.264583"
           d="m 93.75676,105.02162 q 0.232833,0 0.535516,0.0311 0.302684,0.031 0.543278,0.11642 l -0.06209,0.20955 q -0.20955,-0.0466 -0.496711,-0.0621 -0.287161,-0.0155 -0.465667,-0.0155 -0.535516,0 -0.884766,0.14747 -0.341489,0.14746 -0.535517,0.51999 -0.194028,0.36477 -0.287161,1.03223 -0.09313,0.65193 -0.0078,1.0167 0.09313,0.36478 0.380294,0.51224 0.294922,0.1397 0.822678,0.1397 0.116417,0 0.302683,-0.008 0.186267,-0.008 0.403578,-0.0233 0.217311,-0.0233 0.395817,-0.0543 l 0.03104,0.21732 q -0.271639,0.0621 -0.582083,0.10089 -0.310445,0.0466 -0.597606,0.0466 -0.62865,0 -0.985661,-0.19403 -0.357011,-0.20179 -0.473428,-0.62865 -0.116416,-0.43462 -0.01552,-1.15641 0.100895,-0.72178 0.325967,-1.14864 0.232833,-0.42686 0.62865,-0.61313 0.403578,-0.18627 1.024467,-0.18627 z" />
        <path
           id="path49"
           style="font-size:7.76111px;stroke-width:0.264583"
           d="m 97.15714,103.95835 -0.566561,4.08235 q -0.04657,0.30268 0.07761,0.44238 0.131939,0.1397 0.4191,0.1397 h 0.667456 l 0.0078,0.22507 q -0.100895,0.0155 -0.248356,0.0311 -0.1397,0.0155 -0.263878,0.0233 -0.124177,0.008 -0.194027,0.008 -0.450145,0 -0.644173,-0.22507 -0.194027,-0.22507 -0.131938,-0.62865 l 0.574322,-4.09787 z m 1.179689,1.15641 -0.04657,0.26388 H 95.96969 l 0.03105,-0.22508 0.737305,-0.0388 z" />
        <path
           id="path51"
           style="font-size:7.76111px;stroke-width:0.264583"
           d="m 100.07669,105.11476 -0.527751,3.74085 h -0.302683 l 0.527755,-3.74085 z m 0.12418,-1.55999 q 0.0699,0 0.0931,0.0388 0.031,0.031 0.0233,0.0931 l -0.0699,0.47343 q -0.008,0.10866 -0.12418,0.10866 h -0.131937 q -0.1397,0 -0.124178,-0.13194 l 0.06985,-0.46567 q 0.01552,-0.11642 0.131935,-0.11642 z" />
        <path
           id="path53"
           style="font-size:7.76111px;stroke-width:0.264583"
           d="m 103.50072,105.02162 q 0.61313,0 0.95462,0.19403 0.34149,0.19403 0.45014,0.62865 0.10866,0.43462 0.008,1.16417 -0.10089,0.71402 -0.3182,1.14088 -0.21731,0.42686 -0.60537,0.61313 -0.38805,0.18627 -0.99342,0.18627 -0.61313,0 -0.96238,-0.19403 -0.34149,-0.19403 -0.45014,-0.62865 -0.10866,-0.43462 -0.008,-1.15641 0.10089,-0.71402 0.3182,-1.14088 0.21731,-0.42686 0.60537,-0.61313 0.38805,-0.19403 1.00118,-0.19403 z m 0,0.2794 q -0.50447,0 -0.82268,0.15523 -0.3182,0.15522 -0.50447,0.52775 -0.18626,0.37254 -0.27164,1.02447 -0.0931,0.62865 -0.0233,0.99342 0.0776,0.36477 0.34925,0.52 0.27164,0.15522 0.76835,0.15522 0.49671,0 0.81492,-0.15522 0.32596,-0.16299 0.50447,-0.53552 0.18627,-0.37253 0.2794,-1.01671 0.0854,-0.63641 0.008,-1.00118 -0.0699,-0.36477 -0.34149,-0.51223 -0.26388,-0.15523 -0.76059,-0.15523 z" />
        <path
           id="path55"
           style="font-size:7.76111px;stroke-width:0.264583"
           d="m 108.97356,105.02162 q 0.32597,0 0.53552,0.11642 0.20955,0.11642 0.29492,0.34925 0.0931,0.22507 0.0466,0.56656 l -0.39582,2.80176 h -0.31044 l 0.39581,-2.75519 q 0.0543,-0.43462 -0.10089,-0.61313 -0.15522,-0.18627 -0.54328,-0.18627 -0.40358,0 -0.8382,0.25612 -0.43462,0.24836 -1.03223,0.72178 l 0.008,-0.25611 q 0.55104,-0.46567 1.02447,-0.72955 0.48119,-0.27164 0.91581,-0.27164 z m -1.8161,0.0931 -0.10089,0.94685 0.008,0.13194 -0.37253,2.66206 h -0.30269 l 0.52776,-3.74085 z" />
        <path
           id="path57"
           style="font-size:7.76111px;stroke-width:0.264583"
           d="m 113.03946,105.02162 q 0.24835,0 0.50447,0.0155 0.25612,0.0155 0.50447,0.0388 0.24836,0.0155 0.47343,0.0466 l -0.0466,0.22507 q -0.34149,-0.0233 -0.70626,-0.031 -0.35701,-0.0155 -0.72178,-0.0233 -0.40358,-0.008 -0.6597,0.0233 -0.24835,0.0233 -0.38029,0.15522 -0.13194,0.12418 -0.17851,0.4191 -0.0466,0.3182 0.0699,0.4579 0.12418,0.1397 0.4191,0.25612 l 1.19522,0.46567 q 0.26387,0.10089 0.43462,0.21731 0.1785,0.11642 0.25611,0.29492 0.0776,0.17851 0.031,0.48119 -0.0543,0.40358 -0.26388,0.58984 -0.20955,0.18627 -0.5588,0.2406 -0.34925,0.0543 -0.8382,0.0543 -0.21731,0 -0.4191,-0.008 -0.20179,-0.008 -0.42686,-0.031 -0.22507,-0.0233 -0.50447,-0.0621 l 0.0388,-0.22507 q 0.23284,0.0233 0.44239,0.0388 0.20955,0.008 0.4191,0.0155 0.20955,0 0.43462,0 0.47343,-0.008 0.76059,-0.0543 0.28716,-0.0543 0.42686,-0.18627 0.14746,-0.1397 0.18627,-0.41134 0.031,-0.23283 -0.031,-0.35701 -0.0543,-0.12417 -0.18627,-0.19402 -0.12417,-0.0776 -0.31044,-0.14747 l -1.19521,-0.46566 q -0.23283,-0.0931 -0.40358,-0.20179 -0.17074,-0.10866 -0.24835,-0.29492 -0.0776,-0.18627 -0.0311,-0.50448 0.0543,-0.38805 0.2406,-0.56656 0.19402,-0.1785 0.50447,-0.22507 0.3182,-0.0543 0.76835,-0.0466 z" />
      </g>
    </g>
  </g>
</svg>
